<?xml version="1.0" encoding="UTF-8"?>
<svg id="Layer_1" xmlns="http://www.w3.org/2000/svg" version="1.1" viewBox="0 0 32 32">
  <!-- Generator: Adobe Illustrator 30.1.0, SVG Export Plug-In . SVG Version: 2.1.1 Build 136)  -->
  <defs>
    <style>
      .st0 {
        font-family: Arial-BoldMT, Arial;
        font-size: 8px;
        font-weight: 700;
        isolation: isolate;
      }

      .st0, .st1 {
        fill: #e8f9fd;
      }

      .st2 {
        fill: none;
        stroke: #e8f9fd;
        stroke-width: 2px;
      }

      .st3 {
        fill: #1b1b1b;
      }
    </style>
  </defs>
  <rect class="st3" y="0" width="32" height="32" rx="6" ry="6"/>
  <rect class="st2" x="-23.48" y="9" width="18" height="16" rx="2" ry="2"/>
  <line class="st2" x1="-23.48" y1="13" x2="-5.48" y2="13"/>
  <text class="st0" transform="translate(-18.25 21)"><tspan x="0" y="0">W</tspan></text>
  <path class="st1" d="M24.25,8.46h-1.46v-1.11c0-.99-.73-1.76-1.68-1.91h-1.19c-.94.16-1.65.91-1.66,1.89v1.12h-4.52v-1.16c-.02-.96-.75-1.7-1.66-1.85h-1.19c-.95.15-1.67.92-1.68,1.91v1.11h-1.46c-.88,0-1.56.69-1.56,1.57v14.95c0,.8.53,1.4,1.31,1.57h16.99c.76-.16,1.31-.76,1.31-1.57v-14.95c0-.88-.68-1.57-1.56-1.57ZM11.1,25.04h-3.39v-3.39h3.39v3.39ZM11.1,20.9h-3.39v-3.77h3.39v3.77ZM11.1,16.38h-3.39v-3.39h3.39v3.39ZM10.72,10.68v-3.34c0-.23.19-.39.41-.39h.71c.22,0,.4.17.4.4v3.35c0,.2-.15.39-.37.4h-.73c-.24,0-.41-.17-.41-.42ZM15.62,25.04h-3.77s0-3.39,0-3.39h3.77v3.39ZM15.62,20.9h-3.77v-3.77h3.77v3.77ZM15.62,16.38h-3.77v-3.39h3.77v3.39ZM16.38,25.04v-3.39h3.77v3.39s-3.77,0-3.77,0ZM16.38,20.9v-3.77h3.77s0,3.77,0,3.77h-3.77ZM20.15,16.38h-3.77v-3.39h3.77v3.39ZM20.16,11.1c-.22,0-.4-.17-.4-.4v-3.35c0-.22.18-.4.4-.4h.71c.22,0,.41.16.41.39v3.38c0,.2-.18.38-.38.38h-.73ZM24.29,25.04h-3.39s0-3.39,0-3.39h3.39v3.39ZM24.29,20.9h-3.39v-3.77h3.39v3.77ZM24.29,16.38h-3.39v-3.39h3.39v3.39Z"/>
</svg>