<?xml version="1.0" encoding="UTF-8"?>
<svg id="Layer_1" data-name="Layer 1" xmlns="http://www.w3.org/2000/svg" viewBox="0 0 32 32">
  <defs>
    <style>
      .cls-1 {
        fill: #f4f4f4;
      }
    </style>
  </defs>
  <path class="cls-1" d="M27.9,15.98v.27l-.98,1.2c-.2.22-.49.28-.73.08l-10.19-8.49-10.21,8.51c-.22.18-.51.1-.67-.07l-.89-1.06c-.19-.22-.15-.53.08-.72L14.9,6.89c.61-.52,1.6-.51,2.2-.01l3.62,3.02v-2.84c.01-.3.2-.5.49-.51h2.82c.25.02.47.19.47.47v6.03s3.25,2.7,3.25,2.7l.15.23Z"/>
  <path class="cls-1" d="M24.51,17.34v7.09c0,.62-.47,1.05-1.07,1.02h-5.55v-5.67h-3.78v5.67h-5.59c-.57.01-1.01-.4-1.02-.97v-7.14l8.5-7.01,8.51,7.01Z"/>
</svg>