<?xml version="1.0" encoding="UTF-8"?>
<svg id="OBJECTS" xmlns="http://www.w3.org/2000/svg" viewBox="0 0 100 100">
  <defs>
    <style>
      .cls-1 {
        fill: #fff;
      }
    </style>
  </defs>
  <path class="cls-1" d="M50.69,69.41c-2.85,0-4.79.05-6.72-.02-1.74-.06-3.49-.06-5.19-.49-2.19-.56-4.08-1.61-5.55-3.38-1.44-1.73-2.15-3.75-2.4-5.95-.18-1.66-.25-3.32-.25-4.99,0-3.28-.02-6.57,0-9.85.01-1.63.06-3.27.31-4.89.46-2.99,1.84-5.45,4.35-7.18,1.52-1.05,3.23-1.62,5.06-1.81,3.95-.42,7.91-.22,11.87-.26,1.69-.02,3.38,0,5.07.07,1.8.08,3.58.22,5.29.87,1.87.71,3.42,1.84,4.61,3.45,1.28,1.73,1.91,3.71,2.07,5.82.38,5.04.19,10.09.17,15.13,0,1.54-.05,3.1-.36,4.63-.45,2.24-1.38,4.22-3.06,5.81-1.37,1.29-2.98,2.09-4.79,2.53-1.1.26-2.22.34-3.35.41-2.68.16-5.36.07-7.12.1ZM65.83,50c0-2.39.04-4.78-.07-7.17-.05-1.19-.11-2.39-.46-3.54-.36-1.2-.95-2.25-1.88-3.11-1.3-1.2-2.89-1.67-4.59-1.84-1.82-.17-3.65-.18-5.48-.19-3.12-.02-6.24-.04-9.36.05-1.25.04-2.5.06-3.73.26-1.77.3-3.29,1.05-4.42,2.49-.98,1.26-1.36,2.74-1.52,4.29-.15,1.5-.15,3.01-.17,4.51-.04,3.78-.06,7.55.06,11.33.03,1.09.11,2.19.37,3.26.37,1.52,1.12,2.79,2.34,3.77,1.14.92,2.5,1.33,3.93,1.51,1.47.18,2.96.19,4.44.2,3.86.02,7.73.06,11.59-.05.99-.03,1.98-.08,2.95-.27,1.54-.29,2.91-.9,3.99-2.09.93-1.02,1.43-2.24,1.69-3.57.31-1.59.27-3.21.31-4.82.05-1.68.01-3.36.01-5.04Z"/>
  <path class="cls-1" d="M49.94,59.99c-5.42.03-9.99-4.45-9.95-10.06.04-5.49,4.5-9.92,10.05-9.92,5.5,0,9.93,4.48,9.95,9.98.02,5.52-4.5,10.08-10.05,10ZM49.99,56.42c3.53,0,6.42-2.88,6.4-6.41-.02-3.57-2.81-6.38-6.41-6.41-3.53-.03-6.44,2.9-6.41,6.45.04,3.56,2.86,6.34,6.41,6.38Z"/>
  <path class="cls-1" d="M62.69,39.67c0,1.31-1.05,2.37-2.35,2.36-1.3,0-2.39-1.08-2.38-2.35,0-1.33,1.06-2.39,2.37-2.38,1.35,0,2.36,1.02,2.36,2.37Z"/>
</svg>