<?xml version="1.0" encoding="UTF-8"?>
<svg id="Layer_1" xmlns="http://www.w3.org/2000/svg" version="1.1" viewBox="0 0 96 96">
  <!-- Generator: Adobe Illustrator 30.1.0, SVG Export Plug-In . SVG Version: 2.1.1 Build 136)  -->
  <defs>
    <style>
      .st0 {
        fill: none;
      }

      .st1 {
        fill: #0acf83;
      }

      .st2 {
        fill: #ff7262;
      }

      .st3 {
        fill: #1abcfe;
      }

      .st4 {
        fill: #f24e1e;
      }

      .st5 {
        fill: #2d2d35;
      }

      .st6 {
        fill: #a259ff;
      }
    </style>
  </defs>
  <rect class="st5" y="0" width="96" height="96" rx="18" ry="18"/>
  <g>
    <path class="st0" d="M29.1,19.65h37.8v56.69H29.1V19.65Z"/>
    <path class="st3" d="M48,48c0-5.22,4.23-9.45,9.45-9.45s9.45,4.23,9.45,9.45-4.23,9.45-9.45,9.45-9.45-4.23-9.45-9.45Z"/>
    <path class="st1" d="M29.1,66.9c0-5.22,4.23-9.45,9.45-9.45h9.45v9.45c0,5.22-4.23,9.45-9.45,9.45s-9.45-4.23-9.45-9.45Z"/>
    <path class="st2" d="M48,19.65v18.9h9.45c5.22,0,9.45-4.23,9.45-9.45s-4.23-9.45-9.45-9.45h-9.45Z"/>
    <path class="st4" d="M29.1,29.1c0,5.22,4.23,9.45,9.45,9.45h9.45v-18.9h-9.45c-5.22,0-9.45,4.23-9.45,9.45h0Z"/>
    <path class="st6" d="M29.1,48c0,5.22,4.23,9.45,9.45,9.45h9.45v-18.9h-9.45c-5.22,0-9.45,4.23-9.45,9.45h0Z"/>
  </g>
</svg>