<?xml version="1.0" encoding="UTF-8"?>
<svg id="Layer_1" xmlns="http://www.w3.org/2000/svg" version="1.1" viewBox="0 0 96 96">
  <!-- Generator: Adobe Illustrator 30.1.0, SVG Export Plug-In . SVG Version: 2.1.1 Build 136)  -->
  <defs>
    <style>
      .st0 {
        fill: #2489ca;
      }

      .st1 {
        fill: #1070b3;
      }

      .st2 {
        fill: #0c2d48;
      }

      .st3 {
        fill: #3c99d4;
      }

      .st4 {
        fill: #0877b9;
      }
    </style>
  </defs>
  <rect class="st2" y="0" width="96" height="96" rx="18" ry="18"/>
  <g>
    <path class="st0" d="M20.19,39.51s-1.38-1,.28-2.32l3.86-3.45s1.1-1.16,2.27-.15l35.63,26.97v12.93s-.02,2.03-2.62,1.81L20.19,39.51Z"/>
    <path class="st1" d="M29.38,47.85l-9.18,8.35s-.94.7,0,1.96l4.26,3.88s1.01,1.09,2.51-.15l9.73-7.38-7.32-6.65Z"/>
    <path class="st4" d="M45.5,47.92l16.84-12.86-.11-12.86s-.72-2.81-3.12-1.35l-22.41,20.4,8.8,6.67Z"/>
    <path class="st3" d="M59.6,75.32c.98,1,2.16.67,2.16.67l13.12-6.47c1.68-1.14,1.44-2.57,1.44-2.57V28.34c0-1.7-1.74-2.28-1.74-2.28l-11.37-5.48c-2.49-1.54-4.11.28-4.11.28,0,0,2.09-1.51,3.12,1.35v51.06c0,.35-.07.7-.22,1.01-.3.6-.95,1.17-2.51.93l.11.12Z"/>
  </g>
</svg>