<?xml version="1.0" encoding="UTF-8"?>
<svg id="Layer_1" xmlns="http://www.w3.org/2000/svg" version="1.1" viewBox="0 0 96 96">
  <!-- Generator: Adobe Illustrator 30.1.0, SVG Export Plug-In . SVG Version: 2.1.1 Build 136)  -->
  <defs>
    <style>
      .st0 {
        fill: #0d2b2f;
      }

      .st1 {
        fill: #25c7b7;
      }
    </style>
  </defs>
  <rect class="st0" y="0" width="96" height="96" rx="18" ry="18"/>
  <path class="st1" d="M53.56,56.34l-13.9-2.91c-.06.11-.12.22-.19.33l12.66,18.46.76-.76,2.15-13.39c-.74-.31-1.29-.95-1.48-1.73h0ZM48.48,38.17c-.52.8-1.42,1.33-2.44,1.33-.16,0-.31-.02-.46-.04l-6.34,9.92,16.94-7.29c0-.07-.02-.13-.02-.2,0-.14.02-.28.04-.42l-7.72-3.3h0ZM48.95,36.36l8.21,3.51c.26-.2.56-.36.88-.44l1.35-8.39-5.14-5.14-5.79,9.05c.28.42.45.91.49,1.41h0ZM66.15,37.8l-5.15-5.15-1.12,6.96c.28.14.54.34.75.57l5.52-2.38ZM53.8,54.51c.41-.74,1.17-1.23,2.01-1.29l1.48-9.2c-.12-.08-.22-.17-.32-.26l-17.04,7.33c.04.18.07.36.09.55l13.78,2.88ZM67.55,39.2l-5.96,2.56,14.7,6.29.05-.05-8.8-8.8h0ZM56.9,58.1l-1.79,11.14,10.4-10.4-7.49-1.56c-.29.38-.67.66-1.12.83ZM36.68,55.24c-.38,0-.74-.06-1.07-.18l-3.45,5.41-1.33-1.33,3.27-5.12c-.08-.1-.16-.21-.23-.31l-5.93,2.55-1.41-1.41,6.49-2.79-11.73-2.45-1.6-1.61.51-.51,13.53,2.82c.16-.3.35-.57.59-.8l-6.57-9.58,1.33-1.33,6.86,10.01c.25-.06.5-.09.75-.09.29,0,.57.04.84.11l6.42-10.04c-.52-.54-.81-1.27-.81-2.02,0-.23.03-.45.08-.67l-8.01-3.42,1.4-1.4,7.59,3.24c.78-.64,1.84-.84,2.8-.5l5.92-9.26-4.91-4.91-28.35,28.35,28.35,28.35,2.79-2.79-12.75-18.6c-.43.19-.89.29-1.36.29h0ZM59.1,44.41l-1.51,9.35c.53.43.87,1.05.93,1.73l8.54,1.78,7.82-7.82-14.12-6.04c-.4.54-1,.89-1.67.99h0Z"/>
</svg>