<?xml version="1.0" encoding="UTF-8"?>
<svg id="Layer_1" xmlns="http://www.w3.org/2000/svg" version="1.1" viewBox="0 0 96 96">
  <!-- Generator: Adobe Illustrator 30.1.0, SVG Export Plug-In . SVG Version: 2.1.1 Build 136)  -->
  <defs>
    <style>
      .st0 {
        fill: #fff;
      }
    </style>
  </defs>
  <rect class="st0" y="0" width="96" height="96" rx="18" ry="18"/>
  <g>
    <ellipse class="st0" cx="47.95" cy="48" rx="27.69" ry="28.35"/>
    <path d="M47.95,19.76c-15.64,0-28.32,12.68-28.32,28.31,0,12.51,8.11,23.13,19.36,26.87,1.41.26,1.94-.61,1.94-1.36,0-.68-.03-2.91-.04-5.27-7.88,1.71-9.54-3.34-9.54-3.34-1.29-3.27-3.15-4.14-3.15-4.14-2.57-1.76.19-1.72.19-1.72,2.84.2,4.34,2.92,4.34,2.92,2.53,4.33,6.62,3.08,8.24,2.35.25-1.83.99-3.08,1.8-3.79-6.29-.72-12.9-3.15-12.9-13.99,0-3.09,1.11-5.62,2.92-7.6-.29-.71-1.26-3.59.28-7.49,0,0,2.38-.76,7.79,2.9,2.26-.63,4.68-.94,7.09-.95,2.41.01,4.83.33,7.09.95,5.41-3.66,7.78-2.9,7.78-2.9,1.54,3.9.57,6.78.28,7.49,1.81,1.98,2.91,4.51,2.91,7.6,0,10.87-6.62,13.27-12.93,13.97,1.02.88,1.92,2.6,1.92,5.24,0,3.79-.03,6.84-.03,7.77,0,.75.51,1.64,1.94,1.36,11.25-3.75,19.35-14.36,19.35-26.87,0-15.64-12.68-28.31-28.31-28.31"/>
  </g>
</svg>